# xmcd
#
# Track frame offsets:
# 150
# 14160
# 25405
# 36431
# 47870
# 58737
# 69091
# 80801
# 92646
# 103864
# 114410
# 125653
# 137116
# 148577
# 160373
# 171058
# 181733
# 193323
# 203687
# 215495
#
# Disc length: 3032 seconds
#
# Revision: 2
# Processed by: cddbd v1.5.2PL0 Copyright (c) Steve Scherf et al.
# Submitted via: Axialis_AX_CDPlayer 2.6
#
DISCID=2f0bd614
DTITLE=Patsy Cline - Patsy Cline
DYEAR=1900
DGENRE=
TTITLE0=a church,courtroom then goodbye
TTITLE1=stop the world
TTITLE2=i cried all the way to the alter
TTITLE3=hungry for love
TTITLE4=honky tonk merry go round
TTITLE5=three ciggarettes in an ashtray
TTITLE6=walkin after midnight
TTITLE7=ive loved and lost again
TTITLE8=stranger in my arms
TTITLE9=pick me up on your way down
TTITLE10=dont ever leave me
TTITLE11=cry not for me
TTITLE12=just out of reach
TTITLE13=let the teardrops fall
TTITLE14=love sick blues
TTITLE15=i love you honey
TTITLE16=crazy dreams
TTITLE17=how can i face tomorrow
TTITLE18=never no more
TTITLE19=today tomorrow and forever
EXTD=
EXTT0=
EXTT1=
EXTT2=
EXTT3=
EXTT4=
EXTT5=
EXTT6=
EXTT7=
EXTT8=
EXTT9=
EXTT10=
EXTT11=
EXTT12=
EXTT13=
EXTT14=
EXTT15=
EXTT16=
EXTT17=
EXTT18=
EXTT19=
PLAYORDER=
